<svg viewBox="0 0 300 250" xmlns="http://www.w3.org/2000/svg"><path d="m180.66 205.16h106.28v31.95h-106.28z" fill="#5b338b"/><g fill="#fff"><path d="m194.06 223.87-2.81-8.5-.03-.09h-1.81l4.03 11.53h1.24l3.96-11.36.06-.17h-1.82z"/><path d="m200.54 215.33a1.25 1.25 0 0 0 -1.24 1.27 1.24 1.24 0 0 0 1.24 1.24 1.26 1.26 0 1 0 0-2.51z"/><path d="m199.72 219.25h1.65v7.57h-1.65z"/><path d="m206.94 222.51h-.05l-.53-.16c-1.06-.33-1.49-.48-1.49-1s.63-.89 1.23-.89c.88 0 1.35.42 1.35 1.21v.13h1.61v-.13a2.7 2.7 0 0 0 -2.95-2.59c-1.7 0-2.85.9-2.85 2.24s1.06 1.81 2.07 2.13l.76.25c1.06.33 1.49.48 1.49 1 0 .77-.73.93-1.34.93s-1.6-.25-1.6-1.41v-.12h-1.64v.12c0 1.91 1.59 2.77 3.16 2.77 1.84 0 3-.89 3-2.32s-1.16-1.81-2.22-2.16z"/><path d="m210.91 219.25h1.65v7.57h-1.65z"/><path d="m211.73 215.33a1.25 1.25 0 0 0 -1.23 1.27 1.24 1.24 0 0 0 1.23 1.24 1.26 1.26 0 1 0 0-2.51z"/><path d="m218 225.39c-.63 0-1.08-.11-1.08-1.47v-3.25h1.9v-1.42h-1.9v-2.47h-1.65v2.47h-1.37v1.42h1.35v3.55c0 2.41 1.38 2.69 2.43 2.69a8.41 8.41 0 0 0 1.28-.1h.1v-1.51h-.14a7.89 7.89 0 0 1 -.92.09z"/><path d="m226.76 223.42a5.26 5.26 0 0 0 .07-.94 3.44 3.44 0 0 0 -3.51-3.43c-2.27 0-3.74 1.56-3.74 4a3.63 3.63 0 0 0 3.78 4 3.26 3.26 0 0 0 3.4-2.44v-.15h-1.66v.09a1.65 1.65 0 0 1 -1.74 1.07 2 2 0 0 1 -2.13-2h5.51zm-3.48-3a1.83 1.83 0 0 1 1.94 1.83h-4a1.88 1.88 0 0 1 2.06-1.87z"/><path d="m232.56 219.13a2.85 2.85 0 0 0 -2.3 1.19v-1.07h-1.66v7.56h1.66v-3.33c0-1.79.82-2.78 2.3-2.78a2.72 2.72 0 0 1 .67.08h.15v-1.53h-.07a1.8 1.8 0 0 0 -.75-.12z"/><path d="m238.56 215.28h1.65v11.53h-1.65z"/><path d="m249.09 223.42a6.12 6.12 0 0 0 .06-.94 3.43 3.43 0 0 0 -3.5-3.43c-2.27 0-3.74 1.56-3.74 4a3.63 3.63 0 0 0 3.78 4 3.26 3.26 0 0 0 3.4-2.44v-.15h-1.66v.09a1.65 1.65 0 0 1 -1.74 1.07 2 2 0 0 1 -2.13-2h5.51zm-3.48-3a1.84 1.84 0 0 1 1.94 1.83h-4a1.88 1.88 0 0 1 2.06-1.87z"/><path d="m258.32 222.51h-.05l-.53-.16c-1.07-.33-1.5-.48-1.5-1s.64-.89 1.23-.89c.89 0 1.36.42 1.36 1.21v.13h1.6v-.13a2.69 2.69 0 0 0 -2.94-2.59c-1.71 0-2.85.9-2.85 2.24s1.05 1.81 2.07 2.13c.27.1.53.17.76.25 1.06.33 1.49.48 1.49 1 0 .77-.73.93-1.34.93s-1.6-.25-1.6-1.41v-.12h-1.62v.12c0 1.91 1.58 2.77 3.15 2.77 1.85 0 3-.89 3-2.32s-1.14-1.81-2.23-2.16z"/><path d="m263.11 215.33a1.26 1.26 0 0 0 -1.24 1.27 1.25 1.25 0 0 0 1.24 1.24 1.26 1.26 0 1 0 0-2.51z"/><path d="m262.29 219.25h1.65v7.57h-1.65z"/><path d="m269.36 225.39c-.63 0-1.08-.11-1.08-1.47v-3.25h1.9v-1.42h-1.9v-2.47h-1.65v2.47h-1.36v1.42h1.36v3.55c0 2.41 1.38 2.69 2.42 2.69a8.19 8.19 0 0 0 1.28-.1h.11v-1.51h-.15a7.87 7.87 0 0 1 -.93.09z"/><path d="m276.48 224.49a1.65 1.65 0 0 1 -1.74 1.07 2 2 0 0 1 -2.14-2h5.52v-.1a6.12 6.12 0 0 0 .06-.94 3.43 3.43 0 0 0 -3.51-3.43c-2.27 0-3.73 1.56-3.73 4a3.63 3.63 0 0 0 3.78 4 3.26 3.26 0 0 0 3.4-2.44v-.15h-1.65zm-3.86-2.28a1.88 1.88 0 0 1 2-1.83 1.84 1.84 0 0 1 1.94 1.83z"/></g></svg>