<svg viewBox="0 0 300 250" xmlns="http://www.w3.org/2000/svg"><g fill="#fff"><path d="m29.4 215.18a4.63 4.63 0 0 0 -3.21-1.3 5.76 5.76 0 0 0 0 11.52 4.62 4.62 0 0 0 3.21-1.29v1h2.7v-11h-2.7zm0 4.48a3.09 3.09 0 1 1 -3.1-3.27 3.06 3.06 0 0 1 3.1 3.27z"/><path d="m42.14 219.79c0 1.44-.67 3.13-2.56 3.13-1.46 0-2.2-1-2.2-3v-5.8h-2.72v6.43a5.3 5.3 0 0 0 .84 3.34 4 4 0 0 0 3.4 1.48 4.46 4.46 0 0 0 3.24-1.27v1h2.71v-11h-2.71z"/><path d="m58.17 218.71-.75-.23c-1.45-.45-2-.63-2-1.22 0-1 1.16-1 1.52-1 1.13 0 1.7.51 1.7 1.5v.38h2.65v-.38c0-2.22-1.82-3.83-4.33-3.83s-4.19 1.34-4.19 3.34c0 2.21 1.62 2.72 3 3.17.39.14.75.25 1.08.35 1.44.45 1.94.64 1.94 1.26s-.56 1.1-1.68 1.1c-1.37 0-2-.58-2-1.77v-.38h-2.63v.38c0 2.81 2.32 4.07 4.62 4.07 2.71 0 4.4-1.32 4.4-3.44s-1.74-2.79-3.33-3.3z"/><path d="m68.46 213.88a5.76 5.76 0 1 0 5.8 5.78 5.63 5.63 0 0 0 -5.8-5.78zm0 9a3.26 3.26 0 0 1 0-6.5 3.25 3.25 0 0 1 0 6.5z"/><path d="m88.15 213.88a4 4 0 0 0 -3.26 1.69 3.46 3.46 0 0 0 -3.33-1.69 3.56 3.56 0 0 0 -2.65 1.12v-.87h-2.72v11h2.72v-5.6c0-2 .78-3.19 2.15-3.19.76 0 1.77.27 1.77 2.63v6.16h2.72v-5.6c0-1.19.27-3.19 2.13-3.19 1.19 0 1.79.85 1.79 2.52v6.27h2.72v-6.83c0-2.85-1.44-4.42-4.04-4.42z"/><path d="m106.76 213.88a4 4 0 0 0 -3.26 1.69 3.47 3.47 0 0 0 -3.33-1.69 3.56 3.56 0 0 0 -2.65 1.12v-.87h-2.72v11h2.72v-5.6c0-2 .78-3.19 2.15-3.19.76 0 1.77.27 1.77 2.63v6.16h2.72v-5.6c0-1.19.27-3.19 2.13-3.19 1.19 0 1.79.85 1.79 2.52v6.27h2.72v-6.83c0-2.85-1.44-4.42-4.04-4.42z"/><path d="m123.08 220.23a8.33 8.33 0 0 0 .09-1.34 5 5 0 0 0 -5.12-5c-3.25 0-5.43 2.32-5.43 5.78s2.16 5.74 5.5 5.74a4.75 4.75 0 0 0 4.95-3.57l.09-.45h-2.71l-.09.25a2.12 2.12 0 0 1 -2.24 1.38 2.51 2.51 0 0 1 -2.77-2.46h7.65zm-5.08-4.08a2.36 2.36 0 0 1 2.49 2.16h-5.14a2.42 2.42 0 0 1 2.65-2.16z"/><path d="m125.27 214.15h2.71v11h-2.71z"/><path d="m126.61 208.67a2 2 0 1 0 2 2 2 2 0 0 0 -2-2z"/><path d="m130.75 208.6h2.71v16.56h-2.71z"/><path d="m137.72 221.36a2 2 0 0 0 0 3.91 2 2 0 0 0 2-1.93 2 2 0 0 0 -2-1.98z"/></g></svg>