<svg xmlns="http://www.w3.org/2000/svg" xmlns:xlink="http://www.w3.org/1999/xlink" viewBox="0 0 261.56 74.44"><defs><style>.cls-1{fill:url(#GRADIENT_RGB);}.cls-2{fill:url(#GRADIENT_RGB-2);}.cls-3{fill:url(#GRADIENT_RGB-3);}.cls-4{fill:url(#GRADIENT_RGB-4);}.cls-5{fill:#4f2d7f;}</style><linearGradient id="GRADIENT_RGB" x1="30.68" y1="15.51" x2="-0.33" y2="17.68" gradientUnits="userSpaceOnUse"><stop offset="0" stop-color="#4f2d7f"/><stop offset="0.12" stop-color="#4f2d7f"/><stop offset="0.12" stop-color="#4f2d7f"/><stop offset="0.31" stop-color="#6a4e96"/><stop offset="0.55" stop-color="#8771ae"/><stop offset="0.75" stop-color="#9986bd"/><stop offset="0.87" stop-color="#a08ec3"/><stop offset="1" stop-color="#917dba"/></linearGradient><linearGradient id="GRADIENT_RGB-2" x1="-586.47" y1="393.46" x2="-617.48" y2="395.62" gradientTransform="translate(-377.95 -573.89) rotate(-90)" xlink:href="#GRADIENT_RGB"/><linearGradient id="GRADIENT_RGB-3" x1="-964.42" y1="-223.7" x2="-995.43" y2="-221.53" gradientTransform="translate(-951.84 -195.94) rotate(180)" xlink:href="#GRADIENT_RGB"/><linearGradient id="GRADIENT_RGB-4" x1="-347.27" y1="-601.64" x2="-378.28" y2="-599.48" gradientTransform="translate(-573.89 377.95) rotate(90)" xlink:href="#GRADIENT_RGB"/></defs><title>vdsvgxdfgdfhgFichier 1</title><g id="Calque_2" data-name="Calque 2"><g id="Layer_1" data-name="Layer 1"><path class="cls-1" d="M21.63,13.28a13.63,13.63,0,0,1,7.94,7.23,2.59,2.59,0,0,1,.24,1.63c.06-.17.12-.33.17-.51C34.35,7.89,18.87-1.33,11,2.8l-.45.25A21.62,21.62,0,0,0,2.8,32.26C-1.33,24.4,7.88,8.91,21.63,13.28Z"/><path class="cls-2" d="M13.28,21.63a13.66,13.66,0,0,1,7.23-7.94,2.58,2.58,0,0,1,1.63-.23l-.51-.18c-13.74-4.37-23,11.11-18.84,19l.26.46a21.63,21.63,0,0,0,29.21,7.76C24.4,44.59,8.91,35.38,13.28,21.63Z"/><path class="cls-3" d="M21.63,30a13.68,13.68,0,0,1-7.94-7.22,2.55,2.55,0,0,1-.23-1.64c-.07.17-.12.34-.18.51-4.37,13.75,11.11,23,19,18.84.14-.09.3-.17.45-.25A21.64,21.64,0,0,0,40.47,11C44.59,18.86,35.38,34.35,21.63,30Z"/><path class="cls-4" d="M30,21.63a13.62,13.62,0,0,1-7.22,7.94,2.62,2.62,0,0,1-1.64.24l.51.17c13.74,4.37,23-11.11,18.84-19l-.26-.45A21.62,21.62,0,0,0,11,2.8C18.86-1.33,34.36,7.89,30,21.63Z"/><path d="M68.52,32.43l-5.7-9.67h-4v9.67H56V10.8h7c5,0,7.23,2.07,7.23,5.7,0,3.87-2.36,5.17-4.36,5.86l5.93,10.07Zm-5.4-19.19H58.86v7.09h3.86c3.07,0,4.57-1.2,4.57-3.73S65.92,13.24,63.12,13.24Z"/><path d="M79.11,23.6h3.2v-1c0-2.37-1.43-2.87-3-2.87-1.77,0-2.67.7-3,2H73.45c.77-3.4,3.73-4.07,5.93-4.07,3,0,5.6.73,5.6,4.93v9.9H82.61l-.4-1.84a5.45,5.45,0,0,1-4.63,2.17c-3.73,0-5-2.2-5-4.23C72.58,24.93,75.35,23.6,79.11,23.6Zm3.2,3v-1H79c-2.5,0-3.47.9-3.47,2.63,0,1.44.8,2.4,2.94,2.4A3.67,3.67,0,0,0,82.31,26.63Z"/><path d="M86.21,18h3.07l3.5,11,3.8-11h2.76L93.78,33.06c-1.17,3.13-2.3,5.57-5.17,5.57a10,10,0,0,1-2.06-.23V36.33a9.46,9.46,0,0,0,1.43.13c1.56,0,2.3-1.37,3.1-3.33l.16-.4Z"/><path d="M101,18h2.36l.34,1.83a4.64,4.64,0,0,1,4.3-2.1c2.19,0,3.46,1,4,2.43a5.42,5.42,0,0,1,4.87-2.43c3.16,0,4.43,1.73,4.43,5.06v9.67h-2.7v-9C118.6,21,118,20,115.9,20c-2.5,0-3.23,1.74-3.23,4.14v8.26h-2.73v-9c0-2.43-.77-3.43-2.83-3.43-2.54,0-3.37,1.67-3.37,4.07v8.33H101Z"/><path d="M137.46,25.23c0,4.6-2.77,7.53-7.23,7.53s-7-3-7-7.5,2.46-7.66,7.33-7.66C134.93,17.6,137.46,20.43,137.46,25.23Zm-2.9.13c0-3.63-1.6-5.56-4.16-5.56s-4.34,1.93-4.34,5.4,1.7,5.36,4.3,5.36S134.56,28.86,134.56,25.36Z"/><path d="M139.73,18h2.4l.29,1.83a5.3,5.3,0,0,1,4.64-2.17c3.16,0,4.63,1.7,4.63,5v9.8H149v-9c0-2.39-.76-3.43-3.1-3.43-2.53,0-3.47,1.7-3.47,4.1v8.3h-2.69Z"/><path d="M164.39,10.8h2.66V32.43h-2.3l-.33-1.67a5.38,5.38,0,0,1-4.4,2.07c-4.4,0-6.23-2.77-6.23-7.47,0-5,3-7.66,6.56-7.66a5.78,5.78,0,0,1,4,1.37Zm0,10.77a5.19,5.19,0,0,0-3.7-1.64c-2.74,0-4,2-4,5.74,0,4.09,1.77,5,4,5a3.58,3.58,0,0,0,3.7-3.53Z"/><path d="M190.54,27.93l1.77,1.9a10.37,10.37,0,0,1-7.76,3.07c-7.17,0-10.3-4.57-10.3-11.1,0-6.77,3.67-11.36,10.5-11.36a10.56,10.56,0,0,1,7.52,2.93l-1.66,1.87a8.78,8.78,0,0,0-6.17-2.34c-4.49,0-7.16,3.07-7.16,9,0,5.23,2.53,8.59,7.23,8.59A7.69,7.69,0,0,0,190.54,27.93Z"/><path d="M194.34,10.67H197V19.8a5.52,5.52,0,0,1,4.73-2.17c3.1,0,4.5,1.7,4.5,5v9.8h-2.7v-9c0-2.39-.7-3.43-3-3.43-2.53,0-3.53,1.7-3.53,4.1v8.3h-2.67Z"/><path d="M214.77,23.6H218v-1c0-2.37-1.44-2.87-3-2.87-1.76,0-2.66.7-3,2H209.1c.77-3.4,3.74-4.07,5.93-4.07,3,0,5.6.73,5.6,4.93v9.9h-2.36l-.4-1.84a5.45,5.45,0,0,1-4.63,2.17c-3.74,0-5-2.2-5-4.23C208.24,24.93,211,23.6,214.77,23.6Zm3.2,3v-1H214.6c-2.5,0-3.46.9-3.46,2.63,0,1.44.8,2.4,2.93,2.4A3.68,3.68,0,0,0,218,26.63Z"/><path d="M225.73,19.57a6,6,0,0,1,4.4-1.87c3.37,0,6.13,1.87,6.13,7,0,5.3-2.36,8.17-6.53,8.17a5.29,5.29,0,0,1-4.23-1.77l-.3,1.37h-2.14V10.8h2.67Zm0,9.16a4.54,4.54,0,0,0,3.7,1.86c2.33,0,3.9-1.83,3.9-5.56,0-4.06-1.9-5-4.07-5a3.26,3.26,0,0,0-3.53,3.43Z"/><path d="M252.32,25.23c0,4.6-2.76,7.53-7.23,7.53s-7-3-7-7.5,2.46-7.66,7.33-7.66C249.79,17.6,252.32,20.43,252.32,25.23Zm-2.9.13c0-3.63-1.6-5.56-4.16-5.56s-4.33,1.93-4.33,5.4,1.69,5.36,4.3,5.36S249.42,28.86,249.42,25.36Z"/><path d="M258.29,20.33V28.7c0,1.3.4,1.89,1.66,1.89a6.36,6.36,0,0,0,1.6-.19v2.06a9,9,0,0,1-2.2.3c-3.06,0-3.79-1.2-3.79-3.3V20.33h-2.14V18h2.14V14.3l2.73-.46V18h3v2.36Z"/><path d="M56.73,70.71a1.18,1.18,0,0,0,.34.89,1.21,1.21,0,0,0,.89.33,1.16,1.16,0,0,0,.78-.25A.84.84,0,0,0,59,71a.86.86,0,0,0-.09-.41.92.92,0,0,0-.24-.28,2.21,2.21,0,0,0-.34-.18L58,70a5.55,5.55,0,0,1-.69-.24,2.14,2.14,0,0,1-.58-.31,1.27,1.27,0,0,1-.38-.45,1.41,1.41,0,0,1-.14-.69,1.31,1.31,0,0,1,.13-.59,1.41,1.41,0,0,1,.35-.46,1.57,1.57,0,0,1,.54-.3,2,2,0,0,1,.67-.1,1.92,1.92,0,0,1,.69.12,1.5,1.5,0,0,1,.54.34,1.61,1.61,0,0,1,.36.52,1.91,1.91,0,0,1,.13.68h-.71a1.09,1.09,0,0,0-.27-.74.91.91,0,0,0-.72-.28,1.19,1.19,0,0,0-.73.21.85.85,0,0,0-.19,1,.82.82,0,0,0,.23.26,1.4,1.4,0,0,0,.32.18l.38.13c.21.06.42.14.63.22a3.29,3.29,0,0,1,.59.31,1.57,1.57,0,0,1,.43.46,1.26,1.26,0,0,1,.16.67,1.71,1.71,0,0,1-.14.7,1.58,1.58,0,0,1-.39.52,1.75,1.75,0,0,1-.59.31,2.36,2.36,0,0,1-.72.11,2,2,0,0,1-.74-.13,1.84,1.84,0,0,1-.6-.37,1.62,1.62,0,0,1-.4-.58,1.94,1.94,0,0,1-.15-.78Z"/><path d="M62.09,74.44a1.82,1.82,0,0,1-1.2-.38,1.51,1.51,0,0,1-.45-1.16h.68a1,1,0,0,0,.29.72,1,1,0,0,0,.69.24,1.7,1.7,0,0,0,.41,0,.63.63,0,0,0,.31-.17.7.7,0,0,0,.2-.32,1.53,1.53,0,0,0,.07-.51v-1a1.2,1.2,0,0,1-.47.53,1.5,1.5,0,0,1-.76.19,1.54,1.54,0,0,1-.65-.12,1,1,0,0,1-.43-.33,1.28,1.28,0,0,1-.21-.46,3.73,3.73,0,0,1,0-.65V68.91h.67v1.85a2.26,2.26,0,0,0,.05.47.82.82,0,0,0,.14.37.65.65,0,0,0,.28.24.93.93,0,0,0,.44.09.87.87,0,0,0,.44-.1.79.79,0,0,0,.31-.26,1.17,1.17,0,0,0,.18-.39,1.7,1.7,0,0,0,.06-.46V68.91h.68v3.9a1.58,1.58,0,0,1-.43,1.24A1.78,1.78,0,0,1,62.09,74.44Z"/><path d="M64.85,68.91h.67v.62A1.27,1.27,0,0,1,66,69a1.44,1.44,0,0,1,.77-.19,1.56,1.56,0,0,1,.64.12,1,1,0,0,1,.42.34,1.32,1.32,0,0,1,.21.45,2.8,2.8,0,0,1,.06.63v2.08h-.68V70.57a2.25,2.25,0,0,0,0-.46,1,1,0,0,0-.15-.36A.75.75,0,0,0,67,69.5a.9.9,0,0,0-.42-.08.93.93,0,0,0-.45.1,1,1,0,0,0-.31.26,1.27,1.27,0,0,0-.18.39,1.41,1.41,0,0,0-.07.45v1.82h-.67Z"/><path d="M71.9,71.83a1.22,1.22,0,0,1-.52.51,1.39,1.39,0,0,1-.72.19,1.78,1.78,0,0,1-.74-.15,1.72,1.72,0,0,1-.58-.4,1.93,1.93,0,0,1-.5-1.3A2.18,2.18,0,0,1,69,70a2.1,2.1,0,0,1,.37-.59,1.74,1.74,0,0,1,.58-.41,1.78,1.78,0,0,1,.74-.14,1.48,1.48,0,0,1,.72.18,1.3,1.3,0,0,1,.52.52V67h.66v5.45H71.9Zm-1.2.09a1.13,1.13,0,0,0,.49-.1,1.31,1.31,0,0,0,.38-.27,1.3,1.3,0,0,0,.33-.87,1.3,1.3,0,0,0-.09-.49,1.28,1.28,0,0,0-.24-.39,1.17,1.17,0,0,0-.38-.28,1.28,1.28,0,0,0-1,0,1.09,1.09,0,0,0-.36.28,1,1,0,0,0-.24.39,1.3,1.3,0,0,0-.09.49,1.28,1.28,0,0,0,.09.48,1,1,0,0,0,.24.39,1.22,1.22,0,0,0,.36.27A1.15,1.15,0,0,0,70.7,71.92Z"/><path d="M73.46,67.57a.53.53,0,0,1,.16-.39A.49.49,0,0,1,74,67a.55.55,0,0,1,.55.55.49.49,0,0,1-.16.38.57.57,0,0,1-.39.16.53.53,0,0,1-.38-.16A.49.49,0,0,1,73.46,67.57Zm.2,1.34h.68v3.53h-.68Z"/><path d="M77.92,70.19a.89.89,0,0,0-.26-.55,1,1,0,0,0-.72-.22,1.21,1.21,0,0,0-.48.1.93.93,0,0,0-.34.28,1.39,1.39,0,0,0-.21.4,1.65,1.65,0,0,0,0,1,1,1,0,0,0,.21.4,1.06,1.06,0,0,0,.35.27,1.13,1.13,0,0,0,.51.1,1,1,0,0,0,.65-.18,1.08,1.08,0,0,0,.3-.51h.68a1.54,1.54,0,0,1-.17.51,1.2,1.2,0,0,1-.33.41,1.42,1.42,0,0,1-.5.28,2,2,0,0,1-.68.1,1.67,1.67,0,0,1-.76-.16,1.62,1.62,0,0,1-.55-.41,1.66,1.66,0,0,1-.34-.59,2,2,0,0,1-.11-.69,2.09,2.09,0,0,1,.11-.7,1.8,1.8,0,0,1,.33-.59,1.56,1.56,0,0,1,.56-.42,1.81,1.81,0,0,1,.76-.15,2,2,0,0,1,.73.12,1.42,1.42,0,0,1,.51.31,1.23,1.23,0,0,1,.3.44,1.76,1.76,0,0,1,.13.5Z"/><path d="M80.94,70.47l.39.14a1,1,0,0,1,.34.18.78.78,0,0,1,.24.27.83.83,0,0,1,.09.41,1,1,0,0,1-.4.8,1.46,1.46,0,0,1-.44.19,1.93,1.93,0,0,1-.55.07,2,2,0,0,1-.56-.08,1.19,1.19,0,0,1-.46-.24,1.05,1.05,0,0,1-.32-.4,1.22,1.22,0,0,1-.12-.56h.66a.67.67,0,0,0,.24.58,1.18,1.18,0,0,0,1.11,0,.41.41,0,0,0,.19-.38.36.36,0,0,0-.08-.24.66.66,0,0,0-.22-.16A2,2,0,0,0,80.7,71l-.48-.15-.38-.13a1.26,1.26,0,0,1-.3-.18.76.76,0,0,1-.2-.27.87.87,0,0,1-.08-.39,1,1,0,0,1,.1-.44.87.87,0,0,1,.28-.32,1.36,1.36,0,0,1,.42-.2,2.24,2.24,0,0,1,.52-.06,1.61,1.61,0,0,1,.54.08,1.31,1.31,0,0,1,.43.25,1.16,1.16,0,0,1,.29.37,1.13,1.13,0,0,1,.1.49h-.65a.59.59,0,0,0-.19-.48.77.77,0,0,0-.53-.17.86.86,0,0,0-.47.12.43.43,0,0,0-.18.37.38.38,0,0,0,.06.22.53.53,0,0,0,.2.15l.32.12Z"/><path d="M88.13,68.91v3.53h-.67v-.61a1.14,1.14,0,0,1-.51.51,1.41,1.41,0,0,1-.72.19,1.78,1.78,0,0,1-.74-.15,1.72,1.72,0,0,1-.58-.4,1.84,1.84,0,0,1-.37-.6,1.82,1.82,0,0,1-.13-.7,2,2,0,0,1,.13-.72,1.9,1.9,0,0,1,.37-.59,1.74,1.74,0,0,1,.58-.41,1.78,1.78,0,0,1,.74-.14A1.51,1.51,0,0,1,87,69a1.22,1.22,0,0,1,.51.52v-.61Zm-1.87,3a1.15,1.15,0,0,0,.5-.1,1.31,1.31,0,0,0,.38-.27,1.23,1.23,0,0,0,.32-.87,1.29,1.29,0,0,0-.08-.49,1.28,1.28,0,0,0-.24-.39,1.17,1.17,0,0,0-.38-.28,1.28,1.28,0,0,0-1,0,1.13,1.13,0,0,0-.37.28,1.09,1.09,0,0,0-.23.39,1.3,1.3,0,0,0-.09.49,1.28,1.28,0,0,0,.09.48,1.09,1.09,0,0,0,.23.39,1.26,1.26,0,0,0,.37.27A1.13,1.13,0,0,0,86.26,71.92Z"/><path d="M92.42,68.91v3.53h-.68v-.63a1.23,1.23,0,0,1-.48.53,1.7,1.7,0,0,1-1.41.07,1,1,0,0,1-.42-.34,1.17,1.17,0,0,1-.21-.45,2.71,2.71,0,0,1-.06-.62V68.91h.68v1.87a1.71,1.71,0,0,0,0,.46,1,1,0,0,0,.15.36.78.78,0,0,0,.27.24,1,1,0,0,0,.86,0,.82.82,0,0,0,.32-.26,1.42,1.42,0,0,0,.19-.39,1.7,1.7,0,0,0,.06-.46V68.91Z"/><path d="M95.44,72.44l-.27,0h-.34l-.36,0a.82.82,0,0,1-.36-.15,1,1,0,0,1-.28-.37,1.66,1.66,0,0,1-.11-.69V69.48h-.66v-.57h.66V67.72h.68v1.19h.91v.57H94.4V71.1a1.53,1.53,0,0,0,0,.41.55.55,0,0,0,.12.23.32.32,0,0,0,.18.1.88.88,0,0,0,.24,0h.24a.61.61,0,0,0,.22,0Z"/><path d="M97.65,72.53a1.87,1.87,0,0,1-.76-.15,1.76,1.76,0,0,1-.59-.4,1.84,1.84,0,0,1-.37-.6,1.82,1.82,0,0,1-.13-.7,2,2,0,0,1,.13-.72,1.9,1.9,0,0,1,.37-.59,1.78,1.78,0,0,1,.59-.41,2.16,2.16,0,0,1,1.53,0,1.78,1.78,0,0,1,.59.41,1.93,1.93,0,0,1,.38.59,2,2,0,0,1,.13.72,1.82,1.82,0,0,1-.13.7A1.86,1.86,0,0,1,99,72a1.76,1.76,0,0,1-.59.4A1.89,1.89,0,0,1,97.65,72.53Zm0-.61a1.18,1.18,0,0,0,.5-.1,1.26,1.26,0,0,0,.37-.27,1,1,0,0,0,.24-.39,1.28,1.28,0,0,0,.09-.48,1.3,1.3,0,0,0-.09-.49,1,1,0,0,0-.24-.39,1.13,1.13,0,0,0-.37-.28,1.35,1.35,0,0,0-.5-.1,1.3,1.3,0,0,0-.49.1,1,1,0,0,0-.37.28,1.28,1.28,0,0,0-.24.39,1.53,1.53,0,0,0-.08.49,1.51,1.51,0,0,0,.08.48,1.28,1.28,0,0,0,.24.39,1.14,1.14,0,0,0,.37.27A1.13,1.13,0,0,0,97.65,71.92Z"/><path d="M102.52,69.53l-.18,0h-.16a1,1,0,0,0-.88.38,1.62,1.62,0,0,0-.29,1v1.55h-.68V68.91H101v.69a1.16,1.16,0,0,1,.47-.54,1.27,1.27,0,0,1,.7-.21.83.83,0,0,1,.34.06Z"/><path d="M102.85,67.57a.53.53,0,0,1,.16-.39.49.49,0,0,1,.38-.16.55.55,0,0,1,.55.55.49.49,0,0,1-.16.38.57.57,0,0,1-.39.16A.53.53,0,0,1,103,68,.49.49,0,0,1,102.85,67.57Zm.21,1.34h.67v3.53h-.67Z"/><path d="M106.33,70.47l.39.14a1,1,0,0,1,.34.18.78.78,0,0,1,.24.27.83.83,0,0,1,.09.41,1,1,0,0,1-.4.8,1.46,1.46,0,0,1-.44.19,1.93,1.93,0,0,1-.55.07,2,2,0,0,1-.56-.08,1.19,1.19,0,0,1-.46-.24,1.05,1.05,0,0,1-.32-.4,1.22,1.22,0,0,1-.12-.56h.66a.7.7,0,0,0,.23.58,1,1,0,0,0,.6.16,1,1,0,0,0,.52-.12.41.41,0,0,0,.19-.38.36.36,0,0,0-.08-.24.66.66,0,0,0-.22-.16,2,2,0,0,0-.35-.13l-.48-.15-.38-.13a1.26,1.26,0,0,1-.3-.18.76.76,0,0,1-.2-.27.87.87,0,0,1-.08-.39,1,1,0,0,1,.1-.44.87.87,0,0,1,.28-.32,1.36,1.36,0,0,1,.42-.2,2.24,2.24,0,0,1,.52-.06,1.61,1.61,0,0,1,.54.08,1.31,1.31,0,0,1,.43.25,1.16,1.16,0,0,1,.29.37,1.13,1.13,0,0,1,.1.49h-.65a.59.59,0,0,0-.19-.48.77.77,0,0,0-.53-.17.86.86,0,0,0-.47.12.43.43,0,0,0-.18.37.38.38,0,0,0,.06.22.53.53,0,0,0,.2.15l.32.12Z"/><path d="M108.68,70.86a1.42,1.42,0,0,0,.07.42,1.1,1.1,0,0,0,.2.35.83.83,0,0,0,.33.24,1.21,1.21,0,0,0,.5.09.89.89,0,0,0,.6-.17.84.84,0,0,0,.29-.39h.69a1.43,1.43,0,0,1-.17.43,1.86,1.86,0,0,1-.33.36,2,2,0,0,1-.48.25,2.08,2.08,0,0,1-1.38-.06,1.54,1.54,0,0,1-.56-.4,1.64,1.64,0,0,1-.32-.58,2.46,2.46,0,0,1-.11-.72,2.21,2.21,0,0,1,.12-.74,1.75,1.75,0,0,1,.33-.6A1.55,1.55,0,0,1,109,69a1.92,1.92,0,0,1,1.39,0,1.65,1.65,0,0,1,.52.33,1.57,1.57,0,0,1,.34.51,1.51,1.51,0,0,1,.13.63,1.34,1.34,0,0,1,0,.19c0,.07,0,.16,0,.26Zm.19-2.33-.32-.53,1.94-1.07.32.53Zm.87.81a1,1,0,0,0-.75.26,1,1,0,0,0-.3.74h2a.94.94,0,0,0-.28-.73A1,1,0,0,0,109.74,69.34Z"/><path d="M113.75,70.47l.39.14a1,1,0,0,1,.34.18.78.78,0,0,1,.24.27.83.83,0,0,1,.09.41,1,1,0,0,1-.11.46.87.87,0,0,1-.29.34,1.36,1.36,0,0,1-.44.19,1.93,1.93,0,0,1-.55.07,2,2,0,0,1-.56-.08,1.19,1.19,0,0,1-.46-.24,1.16,1.16,0,0,1-.32-.4,1.22,1.22,0,0,1-.12-.56h.66a.67.67,0,0,0,.24.58,1,1,0,0,0,.59.16,1,1,0,0,0,.52-.12.41.41,0,0,0,.19-.38.32.32,0,0,0-.08-.24.66.66,0,0,0-.22-.16,1.73,1.73,0,0,0-.35-.13l-.48-.15-.38-.13a1.49,1.49,0,0,1-.3-.18.9.9,0,0,1-.2-.27,1,1,0,0,1,0-.83.79.79,0,0,1,.28-.32,1.36,1.36,0,0,1,.42-.2,2.1,2.1,0,0,1,.51-.06,1.61,1.61,0,0,1,.54.08,1.31,1.31,0,0,1,.43.25,1.16,1.16,0,0,1,.29.37,1.13,1.13,0,0,1,.1.49h-.65a.62.62,0,0,0-.18-.48.79.79,0,0,0-.54-.17.83.83,0,0,0-.46.12.42.42,0,0,0-.19.37.32.32,0,0,0,.07.22.49.49,0,0,0,.19.15l.32.12Z"/><path d="M117.91,70.86a1.42,1.42,0,0,0,.07.42,1.1,1.1,0,0,0,.2.35.83.83,0,0,0,.33.24,1.21,1.21,0,0,0,.5.09.89.89,0,0,0,.6-.17.91.91,0,0,0,.29-.39h.69a1.43,1.43,0,0,1-.17.43,1.86,1.86,0,0,1-.33.36,2,2,0,0,1-.48.25,2.08,2.08,0,0,1-1.38-.06,1.54,1.54,0,0,1-.56-.4,1.64,1.64,0,0,1-.32-.58,2.17,2.17,0,0,1-.11-.72,2.5,2.5,0,0,1,.11-.74,2,2,0,0,1,.34-.6,1.55,1.55,0,0,1,.55-.38,1.72,1.72,0,0,1,.74-.14,1.68,1.68,0,0,1,1.17.45,1.75,1.75,0,0,1,.34.51,1.51,1.51,0,0,1,.13.63,1.34,1.34,0,0,1,0,.19c0,.07,0,.16,0,.26ZM119,69.34a1,1,0,0,0-.75.26,1,1,0,0,0-.3.74h2a.94.94,0,0,0-.28-.73A1,1,0,0,0,119,69.34Z"/><path d="M121.48,68.91h.68v.62a1.15,1.15,0,0,1,.48-.52,1.44,1.44,0,0,1,.77-.19,1.56,1.56,0,0,1,.64.12,1.07,1.07,0,0,1,.42.34,1.85,1.85,0,0,1,.21.45,2.8,2.8,0,0,1,.06.63v2.08h-.68V70.57a1.71,1.71,0,0,0,0-.46,1,1,0,0,0-.15-.36.72.72,0,0,0-.27-.25.94.94,0,0,0-.43-.08.89.89,0,0,0-.44.1.86.86,0,0,0-.31.26,1.29,1.29,0,0,0-.19.39,1.74,1.74,0,0,0-.06.45v1.82h-.68Z"/><path d="M127.42,67.57a.56.56,0,0,1,.15-.39A.51.51,0,0,1,128,67a.51.51,0,0,1,.39.16.54.54,0,0,1,.17.39.5.5,0,0,1-.17.38.55.55,0,0,1-.39.16.55.55,0,0,1-.38-.16A.52.52,0,0,1,127.42,67.57Zm.2,1.34h.68v3.53h-.68Z"/><path d="M129.39,68.91h.68v.62a1.2,1.2,0,0,1,.48-.52,1.44,1.44,0,0,1,.77-.19,1.56,1.56,0,0,1,.64.12,1.07,1.07,0,0,1,.42.34,1.32,1.32,0,0,1,.21.45,2.8,2.8,0,0,1,.06.63v2.08H132V70.57a2.25,2.25,0,0,0,0-.46,1.19,1.19,0,0,0-.16-.36.72.72,0,0,0-.27-.25,1.1,1.1,0,0,0-.87,0,.86.86,0,0,0-.31.26,1.57,1.57,0,0,0-.19.39,1.74,1.74,0,0,0-.06.45v1.82h-.68Z"/><path d="M135.17,70.47l.4.14a1.11,1.11,0,0,1,.34.18.87.87,0,0,1,.23.27.83.83,0,0,1,.09.41,1,1,0,0,1-.1.46,1,1,0,0,1-.29.34,1.58,1.58,0,0,1-.44.19,2.09,2.09,0,0,1-1.11,0,1.31,1.31,0,0,1-.47-.24,1.16,1.16,0,0,1-.32-.4,1.22,1.22,0,0,1-.12-.56h.67a.67.67,0,0,0,.23.58,1,1,0,0,0,.6.16,1,1,0,0,0,.52-.12.43.43,0,0,0,.19-.38.36.36,0,0,0-.08-.24.78.78,0,0,0-.22-.16,2.12,2.12,0,0,0-.36-.13l-.47-.15-.38-.13a1.09,1.09,0,0,1-.3-.18.79.79,0,0,1-.21-.27.88.88,0,0,1-.07-.39.89.89,0,0,1,.38-.76,1.36,1.36,0,0,1,.42-.2,2.12,2.12,0,0,1,.52-.06,1.51,1.51,0,0,1,.53.08,1.36,1.36,0,0,1,.44.25,1.14,1.14,0,0,1,.39.86h-.66a.62.62,0,0,0-.18-.48.77.77,0,0,0-.53-.17.86.86,0,0,0-.47.12.44.44,0,0,0-.19.37.38.38,0,0,0,.07.22.46.46,0,0,0,.2.15l.32.12Z"/><path d="M138.65,72.53a1.92,1.92,0,0,1-.77-.15,1.82,1.82,0,0,1-.58-.4,1.68,1.68,0,0,1-.37-.6,1.82,1.82,0,0,1-.14-.7,2,2,0,0,1,.14-.72,1.73,1.73,0,0,1,.37-.59,1.85,1.85,0,0,1,.58-.41,2.19,2.19,0,0,1,1.54,0,1.89,1.89,0,0,1,.59.41,1.73,1.73,0,0,1,.37.59,2,2,0,0,1,.14.72,1.82,1.82,0,0,1-.14.7,1.68,1.68,0,0,1-.37.6,1.87,1.87,0,0,1-.59.4A1.92,1.92,0,0,1,138.65,72.53Zm0-.61a1.13,1.13,0,0,0,.49-.1,1.19,1.19,0,0,0,.38-.27,1.3,1.3,0,0,0,.33-.87,1.3,1.3,0,0,0-.09-.49,1.28,1.28,0,0,0-.24-.39,1.08,1.08,0,0,0-.38-.28,1.3,1.3,0,0,0-.49-.1,1.26,1.26,0,0,0-.49.1,1,1,0,0,0-.37.28,1.28,1.28,0,0,0-.24.39,1.3,1.3,0,0,0-.09.49,1.3,1.3,0,0,0,.33.87,1.14,1.14,0,0,0,.37.27A1.1,1.1,0,0,0,138.65,71.92Z"/><path d="M141.33,67H142v5.45h-.67Z"/><path d="M143.35,68.91l1.11,2.57,1.12-2.57h.73l-1.62,3.53h-.47l-1.6-3.53Z"/><path d="M150.27,68.91v3.53h-.67v-.61a1.25,1.25,0,0,1-.51.51,1.45,1.45,0,0,1-.73.19,1.77,1.77,0,0,1-1.31-.55,1.84,1.84,0,0,1-.37-.6,1.82,1.82,0,0,1-.13-.7,2,2,0,0,1,.13-.72,1.9,1.9,0,0,1,.37-.59,1.81,1.81,0,0,1,.57-.41,1.78,1.78,0,0,1,.74-.14,1.55,1.55,0,0,1,.73.18,1.34,1.34,0,0,1,.51.52v-.61Zm-1.87,3a1.1,1.1,0,0,0,.49-.1,1.19,1.19,0,0,0,.38-.27,1,1,0,0,0,.24-.39,1.28,1.28,0,0,0,.09-.48,1.3,1.3,0,0,0-.09-.49,1,1,0,0,0-.24-.39,1.08,1.08,0,0,0-.38-.28,1.25,1.25,0,0,0-1,0,1,1,0,0,0-.37.28,1.28,1.28,0,0,0-.24.39,1.3,1.3,0,0,0-.09.49,1.3,1.3,0,0,0,.33.87,1.14,1.14,0,0,0,.37.27A1.1,1.1,0,0,0,148.4,71.92Z"/><path d="M152,72.44h-.67V67H152v2.53a1.34,1.34,0,0,1,.51-.52,1.48,1.48,0,0,1,.72-.18A1.86,1.86,0,0,1,154,69a1.7,1.7,0,0,1,.57.41A1.73,1.73,0,0,1,155,70a2,2,0,0,1,.14.72,1.82,1.82,0,0,1-.14.7,1.74,1.74,0,0,1-.94,1,1.86,1.86,0,0,1-.75.15,1.39,1.39,0,0,1-.72-.19,1.25,1.25,0,0,1-.51-.51Zm1.2-.52a1.13,1.13,0,0,0,.49-.1,1.22,1.22,0,0,0,.36-.27,1,1,0,0,0,.24-.39,1.28,1.28,0,0,0,.09-.48,1.3,1.3,0,0,0-.09-.49,1,1,0,0,0-.24-.39,1.09,1.09,0,0,0-.36-.28,1.25,1.25,0,0,0-1,0,1.08,1.08,0,0,0-.38.28,1.28,1.28,0,0,0-.24.39,1.3,1.3,0,0,0-.09.49,1.3,1.3,0,0,0,.33.87,1.19,1.19,0,0,0,.38.27A1.13,1.13,0,0,0,153.24,71.92Z"/><path d="M155.71,67.57a.53.53,0,0,1,.16-.39.49.49,0,0,1,.38-.16.55.55,0,0,1,.55.55.49.49,0,0,1-.16.38.57.57,0,0,1-.39.16.53.53,0,0,1-.38-.16A.49.49,0,0,1,155.71,67.57Zm.2,1.34h.68v3.53h-.68Z"/><path d="M157.69,67h.68v5.45h-.68Z"/><path d="M159.26,67.57a.53.53,0,0,1,.16-.39.49.49,0,0,1,.38-.16.55.55,0,0,1,.55.55.49.49,0,0,1-.16.38.57.57,0,0,1-.39.16.53.53,0,0,1-.38-.16A.49.49,0,0,1,159.26,67.57Zm.2,1.34h.68v3.53h-.68Z"/><path d="M163.26,72.44l-.27,0h-.34l-.36,0a.82.82,0,0,1-.36-.15.91.91,0,0,1-.28-.37,1.66,1.66,0,0,1-.11-.69V69.48h-.66v-.57h.66V67.72h.67v1.19h.92v.57h-.92V71.1a1.47,1.47,0,0,0,0,.41.55.55,0,0,0,.12.23.32.32,0,0,0,.18.1.88.88,0,0,0,.24,0H163a.65.65,0,0,0,.22,0Z"/><path d="M164.34,70.86a1.42,1.42,0,0,0,.08.42.92.92,0,0,0,.19.35,1,1,0,0,0,.33.24,1.24,1.24,0,0,0,.5.09.89.89,0,0,0,.6-.17.84.84,0,0,0,.29-.39H167a1.43,1.43,0,0,1-.17.43,1.39,1.39,0,0,1-.33.36,1.9,1.9,0,0,1-.47.25,2,2,0,0,1-.61.09,1.87,1.87,0,0,1-.78-.15,1.6,1.6,0,0,1-.88-1,2.46,2.46,0,0,1-.11-.72,2.21,2.21,0,0,1,.12-.74,1.77,1.77,0,0,1,.34-.6,1.51,1.51,0,0,1,.54-.38,1.76,1.76,0,0,1,.75-.14,1.73,1.73,0,0,1,.64.12,1.65,1.65,0,0,1,.52.33,1.78,1.78,0,0,1,.35.51,1.68,1.68,0,0,1,.12.63v.19c0,.07,0,.16,0,.26Zm.2-2.33-.32-.53,1.94-1.07.31.53Zm.86.81a1,1,0,0,0-.75.26,1,1,0,0,0-.3.74h2.05a.94.94,0,0,0-.29-.73A1,1,0,0,0,165.4,69.34Z"/><path class="cls-5" d="M63.75,51a3.48,3.48,0,0,1-.55,1.17,4,4,0,0,1-.92,1,5,5,0,0,1-4.72.47,4.52,4.52,0,0,1-1.48-1,4.17,4.17,0,0,1-.93-1.49,5.19,5.19,0,0,1,0-3.56,4.41,4.41,0,0,1,4.23-2.93,5.38,5.38,0,0,1,1.73.26,4.33,4.33,0,0,1,1.31.71,3.89,3.89,0,0,1,.88,1.06,4.6,4.6,0,0,1,.46,1.32H62.52a3.13,3.13,0,0,0-.35-.91,2.33,2.33,0,0,0-.63-.73,3,3,0,0,0-.89-.49,3.69,3.69,0,0,0-1.14-.17,3.49,3.49,0,0,0-1.48.3,3.17,3.17,0,0,0-1.09.81,3.66,3.66,0,0,0-.68,1.16A3.94,3.94,0,0,0,56,49.24a4.09,4.09,0,0,0,.24,1.41A3.38,3.38,0,0,0,57,51.81a3.3,3.3,0,0,0,1.15.8,3.79,3.79,0,0,0,1.55.29,3.05,3.05,0,0,0,1.72-.54,2.89,2.89,0,0,0,.65-.61,2.48,2.48,0,0,0,.41-.77Z"/><path class="cls-5" d="M67.73,53.89a3.22,3.22,0,0,1-1.26-.24,2.76,2.76,0,0,1-1-.67,3,3,0,0,1-.62-1,3.19,3.19,0,0,1-.22-1.16,3.34,3.34,0,0,1,.22-1.18,3,3,0,0,1,.62-1,2.76,2.76,0,0,1,1-.67A3.45,3.45,0,0,1,69,48a2.9,2.9,0,0,1,1,.67,2.87,2.87,0,0,1,.62,1,3.13,3.13,0,0,1,.22,1.18A3,3,0,0,1,70.59,52,2.87,2.87,0,0,1,70,53a2.9,2.9,0,0,1-1,.67A3.23,3.23,0,0,1,67.73,53.89Zm0-1a1.78,1.78,0,0,0,.81-.17,1.93,1.93,0,0,0,.63-.44,2,2,0,0,0,.4-.65,2.33,2.33,0,0,0,0-1.59,2,2,0,0,0-.4-.65,1.81,1.81,0,0,0-.63-.45,2,2,0,0,0-1.62,0,1.83,1.83,0,0,0-.61.45,1.85,1.85,0,0,0-.39.65,2.33,2.33,0,0,0,0,1.59,1.85,1.85,0,0,0,.39.65,2,2,0,0,0,.61.44A1.78,1.78,0,0,0,67.73,52.89Z"/><path class="cls-5" d="M72,47.92H73.1v1a2,2,0,0,1,.78-.86A2.76,2.76,0,0,1,76.2,48a1.64,1.64,0,0,1,.7.57,2.17,2.17,0,0,1,.34.74,4.27,4.27,0,0,1,.11,1v3.44H76.23V50.66a3.52,3.52,0,0,0-.08-.75,1.6,1.6,0,0,0-.25-.61,1.24,1.24,0,0,0-.45-.4,1.62,1.62,0,0,0-.7-.14,1.54,1.54,0,0,0-.73.16,1.47,1.47,0,0,0-.51.45,1.86,1.86,0,0,0-.31.63,2.66,2.66,0,0,0-.1.75v3H72Z"/><path class="cls-5" d="M81.38,50.5l.65.22a2.49,2.49,0,0,1,.56.3,1.41,1.41,0,0,1,.39.45,1.49,1.49,0,0,1,.14.68,1.55,1.55,0,0,1-.17.76,1.58,1.58,0,0,1-.48.55,2.31,2.31,0,0,1-.73.32,3.22,3.22,0,0,1-.9.11,3.17,3.17,0,0,1-.93-.13,2,2,0,0,1-.76-.39,1.93,1.93,0,0,1-.53-.66,2,2,0,0,1-.2-.92h1.1a1.07,1.07,0,0,0,.39.94,1.69,1.69,0,0,0,1,.28,1.59,1.59,0,0,0,.85-.2.72.72,0,0,0,.32-.64.56.56,0,0,0-.13-.39,1.06,1.06,0,0,0-.37-.26A3.38,3.38,0,0,0,81,51.3a7.6,7.6,0,0,1-.78-.25c-.23-.06-.43-.14-.63-.21a1.9,1.9,0,0,1-.5-.3,1.22,1.22,0,0,1-.33-.44,1.54,1.54,0,0,1-.12-.65,1.41,1.41,0,0,1,.63-1.25,2,2,0,0,1,.69-.32,3,3,0,0,1,.85-.11,2.54,2.54,0,0,1,.88.14,2.19,2.19,0,0,1,.72.4,1.93,1.93,0,0,1,.47.63,1.73,1.73,0,0,1,.17.79H82a1,1,0,0,0-.31-.79,1.27,1.27,0,0,0-.88-.27,1.45,1.45,0,0,0-.77.2.69.69,0,0,0-.3.61.55.55,0,0,0,.11.36.92.92,0,0,0,.32.24,5,5,0,0,0,.53.2Z"/><path class="cls-5" d="M85.05,51.13a2.63,2.63,0,0,0,.12.7,1.92,1.92,0,0,0,.32.58,1.51,1.51,0,0,0,.55.4,2,2,0,0,0,.82.15A1.42,1.42,0,0,0,88.34,52h1.13a2.39,2.39,0,0,1-.28.71,2.32,2.32,0,0,1-.54.59,2.81,2.81,0,0,1-.79.41,3.48,3.48,0,0,1-2.28-.09,2.38,2.38,0,0,1-.91-.66,2.62,2.62,0,0,1-.54-1A3.79,3.79,0,0,1,84,50.84a3.67,3.67,0,0,1,.19-1.22,2.79,2.79,0,0,1,.56-1,2.46,2.46,0,0,1,.9-.64,2.92,2.92,0,0,1,1.22-.23,2.67,2.67,0,0,1,1.06.2,2.51,2.51,0,0,1,.86.56,2.24,2.24,0,0,1,.57.84,2.53,2.53,0,0,1,.21,1c0,.09,0,.19,0,.31a3.66,3.66,0,0,1,0,.42Zm1.75-2.5a1.77,1.77,0,0,0-1.24.43,1.66,1.66,0,0,0-.5,1.22h3.38A1.6,1.6,0,0,0,88,49.07,1.65,1.65,0,0,0,86.8,48.63Z"/><path class="cls-5" d="M90.71,45.71a.9.9,0,0,1,.26-.64.83.83,0,0,1,.63-.27.92.92,0,0,1,.91.91.83.83,0,0,1-.27.63.9.9,0,0,1-.64.26.89.89,0,0,1-.89-.89Zm.34,2.21h1.11v5.83H91.05Z"/><path class="cls-5" d="M94,44.76h1.12v9H94Z"/><path class="cls-5" d="M96.81,44.76h1.12v9H96.81Z"/><path class="cls-5" d="M100.14,51.13a2.63,2.63,0,0,0,.12.7,1.73,1.73,0,0,0,.32.58,1.43,1.43,0,0,0,.55.4A2,2,0,0,0,102,53a1.56,1.56,0,0,0,1-.28,1.44,1.44,0,0,0,.48-.65h1.13a2.15,2.15,0,0,1-.28.71,2.32,2.32,0,0,1-.54.59,2.63,2.63,0,0,1-.78.41,3.13,3.13,0,0,1-1,.15,3.23,3.23,0,0,1-1.29-.24,2.54,2.54,0,0,1-.91-.66,2.62,2.62,0,0,1-.54-1A3.79,3.79,0,0,1,99,50.84a3.67,3.67,0,0,1,.2-1.22,2.77,2.77,0,0,1,.55-1,2.64,2.64,0,0,1,.9-.64,3,3,0,0,1,1.23-.23A2.67,2.67,0,0,1,103,48a2.61,2.61,0,0,1,.86.56,2.5,2.5,0,0,1,.57.84,2.53,2.53,0,0,1,.21,1c0,.09,0,.19,0,.31a3.92,3.92,0,0,1,0,.42Zm1.74-2.5a1.76,1.76,0,0,0-1.23.43,1.62,1.62,0,0,0-.5,1.22h3.38a1.6,1.6,0,0,0-.47-1.21A1.67,1.67,0,0,0,101.88,48.63Z"/><path class="cls-5" d="M109.64,49l-.29-.05-.26,0a1.72,1.72,0,0,0-1.46.63,2.71,2.71,0,0,0-.48,1.69v2.55H106V47.92h1.12v1.14a1.94,1.94,0,0,1,.77-.89,2.27,2.27,0,0,1,1.17-.34,1.47,1.47,0,0,1,.55.09Z"/><path class="cls-5" d="M113.12,50.5l.65.22a2.22,2.22,0,0,1,.55.3,1.33,1.33,0,0,1,.4.45,1.49,1.49,0,0,1,.14.68,1.55,1.55,0,0,1-.17.76,1.58,1.58,0,0,1-.48.55,2.31,2.31,0,0,1-.73.32,3.22,3.22,0,0,1-.9.11,3.12,3.12,0,0,1-.93-.13,2,2,0,0,1-.76-.39,1.93,1.93,0,0,1-.53-.66,2,2,0,0,1-.2-.92h1.1a1.07,1.07,0,0,0,.39.94,1.69,1.69,0,0,0,1,.28,1.59,1.59,0,0,0,.85-.2.72.72,0,0,0,.32-.64.56.56,0,0,0-.13-.39,1.06,1.06,0,0,0-.37-.26,3.38,3.38,0,0,0-.58-.22,7.6,7.6,0,0,1-.78-.25c-.23-.06-.43-.14-.63-.21a1.9,1.9,0,0,1-.5-.3,1.22,1.22,0,0,1-.33-.44,1.54,1.54,0,0,1-.12-.65A1.41,1.41,0,0,1,111,48.2a2,2,0,0,1,.69-.32,2.91,2.91,0,0,1,.85-.11,2.54,2.54,0,0,1,.88.14,2.19,2.19,0,0,1,.72.4,2.08,2.08,0,0,1,.47.63,1.73,1.73,0,0,1,.17.79H113.7a1,1,0,0,0-.31-.79,1.27,1.27,0,0,0-.88-.27,1.45,1.45,0,0,0-.77.2.69.69,0,0,0-.3.61.55.55,0,0,0,.11.36.92.92,0,0,0,.32.24,5,5,0,0,0,.53.2Z"/><path class="cls-5" d="M120,51.13a2.29,2.29,0,0,0,.13.7,1.73,1.73,0,0,0,.32.58,1.47,1.47,0,0,0,.54.4,2,2,0,0,0,.82.15,1.59,1.59,0,0,0,1-.28,1.44,1.44,0,0,0,.48-.65h1.13a2.15,2.15,0,0,1-.28.71,2.32,2.32,0,0,1-.54.59,2.63,2.63,0,0,1-.78.41,3.51,3.51,0,0,1-2.29-.09,2.46,2.46,0,0,1-.91-.66,2.62,2.62,0,0,1-.54-1,3.79,3.79,0,0,1-.18-1.18,3.67,3.67,0,0,1,.19-1.22,3,3,0,0,1,.56-1,2.55,2.55,0,0,1,.9-.64,3,3,0,0,1,1.23-.23,2.71,2.71,0,0,1,1.92.76,2.5,2.5,0,0,1,.57.84,2.7,2.7,0,0,1,.2,1v.31a3.92,3.92,0,0,1,0,.42Zm1.75-2.5a1.74,1.74,0,0,0-1.23.43,1.58,1.58,0,0,0-.5,1.22h3.37a1.6,1.6,0,0,0-.46-1.21A1.69,1.69,0,0,0,121.72,48.63Z"/><path class="cls-5" d="M125.87,47.92H127v1a2,2,0,0,1,.79-.86,2.76,2.76,0,0,1,2.32-.12,1.7,1.7,0,0,1,.7.57,2.17,2.17,0,0,1,.34.74,4.32,4.32,0,0,1,.1,1v3.44h-1.11V50.66a3.52,3.52,0,0,0-.08-.75,1.6,1.6,0,0,0-.25-.61,1.27,1.27,0,0,0-.46-.4,1.54,1.54,0,0,0-.69-.14,1.51,1.51,0,0,0-.73.16,1.39,1.39,0,0,0-.51.45,1.86,1.86,0,0,0-.31.63,2.67,2.67,0,0,0-.11.75v3h-1.11Z"/><path class="cls-5" d="M139.59,49l-.29-.05-.26,0a1.72,1.72,0,0,0-1.46.63,2.71,2.71,0,0,0-.48,1.69v2.55H136V47.92h1.12v1.14a1.9,1.9,0,0,1,.78-.89,2.21,2.21,0,0,1,1.16-.34,1.44,1.44,0,0,1,.55.09Z"/><path class="cls-5" d="M141,51.13a2.63,2.63,0,0,0,.12.7,1.73,1.73,0,0,0,.32.58,1.43,1.43,0,0,0,.55.4,2,2,0,0,0,.82.15,1.45,1.45,0,0,0,1.48-.93h1.13a2.42,2.42,0,0,1-.29.71,2,2,0,0,1-.54.59,2.63,2.63,0,0,1-.78.41,3.13,3.13,0,0,1-1,.15,3.23,3.23,0,0,1-1.29-.24,2.54,2.54,0,0,1-.91-.66,2.62,2.62,0,0,1-.54-1,3.79,3.79,0,0,1-.18-1.18,3.67,3.67,0,0,1,.2-1.22,2.79,2.79,0,0,1,.56-1,2.51,2.51,0,0,1,.89-.64,3,3,0,0,1,1.23-.23,2.67,2.67,0,0,1,1.06.2,2.62,2.62,0,0,1,1.64,2.43c0,.09,0,.19,0,.31a3.66,3.66,0,0,1,0,.42Zm1.74-2.5a1.76,1.76,0,0,0-1.23.43,1.66,1.66,0,0,0-.5,1.22h3.38a1.6,1.6,0,0,0-.47-1.21A1.66,1.66,0,0,0,142.72,48.63Z"/><path class="cls-5" d="M151.5,52.74a2,2,0,0,1-.85.84,2.39,2.39,0,0,1-1.2.31,3.05,3.05,0,0,1-1.22-.24,2.88,2.88,0,0,1-.94-.67,3.18,3.18,0,0,1-.61-1,3,3,0,0,1-.22-1.16,3.13,3.13,0,0,1,.22-1.18,3.18,3.18,0,0,1,.61-1,2.88,2.88,0,0,1,.94-.67,3.05,3.05,0,0,1,1.22-.24,2.39,2.39,0,0,1,1.2.31,2,2,0,0,1,.85.84V44.76h1.1v9h-1.1Zm-2,.15a1.78,1.78,0,0,0,.81-.17,2,2,0,0,0,.63-.44,1.85,1.85,0,0,0,.39-.65,2.18,2.18,0,0,0,0-1.59,1.85,1.85,0,0,0-.39-.65,2,2,0,0,0-2.25-.45,1.83,1.83,0,0,0-.61.45,1.85,1.85,0,0,0-.39.65,2.33,2.33,0,0,0,0,1.59,1.85,1.85,0,0,0,.39.65,2,2,0,0,0,.61.44A1.78,1.78,0,0,0,149.52,52.89Z"/><path class="cls-5" d="M157.76,49l-.29-.05-.26,0a1.72,1.72,0,0,0-1.46.63,2.71,2.71,0,0,0-.48,1.69v2.55h-1.12V47.92h1.12v1.14a1.9,1.9,0,0,1,.78-.89,2.21,2.21,0,0,1,1.16-.34,1.44,1.44,0,0,1,.55.09Z"/><path class="cls-5" d="M159.24,51.13a2.63,2.63,0,0,0,.12.7,1.73,1.73,0,0,0,.32.58,1.43,1.43,0,0,0,.55.4,2,2,0,0,0,.82.15,1.56,1.56,0,0,0,1-.28,1.44,1.44,0,0,0,.48-.65h1.13a2.15,2.15,0,0,1-.28.71,2.32,2.32,0,0,1-.54.59,2.63,2.63,0,0,1-.78.41,3.13,3.13,0,0,1-1,.15,3.23,3.23,0,0,1-1.29-.24,2.54,2.54,0,0,1-.91-.66,2.62,2.62,0,0,1-.54-1,3.79,3.79,0,0,1-.18-1.18,3.67,3.67,0,0,1,.2-1.22,2.77,2.77,0,0,1,.55-1,2.64,2.64,0,0,1,.9-.64,3,3,0,0,1,1.23-.23,2.67,2.67,0,0,1,1.06.2,2.61,2.61,0,0,1,.86.56,2.5,2.5,0,0,1,.57.84,2.53,2.53,0,0,1,.21,1c0,.09,0,.19,0,.31a2.37,2.37,0,0,1,0,.42Zm1.74-2.5a1.76,1.76,0,0,0-1.23.43,1.62,1.62,0,0,0-.5,1.22h3.38a1.6,1.6,0,0,0-.47-1.21A1.67,1.67,0,0,0,161,48.63Z"/><path class="cls-5" d="M167.6,50.5l.65.22a2.22,2.22,0,0,1,.55.3,1.33,1.33,0,0,1,.4.45,1.49,1.49,0,0,1,.14.68,1.55,1.55,0,0,1-.17.76,1.69,1.69,0,0,1-.48.55,2.31,2.31,0,0,1-.73.32,3.27,3.27,0,0,1-.9.11,3.12,3.12,0,0,1-.93-.13,2,2,0,0,1-.76-.39,1.93,1.93,0,0,1-.53-.66,2,2,0,0,1-.2-.92h1.1a1.07,1.07,0,0,0,.39.94,1.67,1.67,0,0,0,1,.28,1.59,1.59,0,0,0,.85-.2.72.72,0,0,0,.32-.64.61.61,0,0,0-.13-.39,1.06,1.06,0,0,0-.37-.26,3.74,3.74,0,0,0-.58-.22,7.6,7.6,0,0,1-.78-.25c-.23-.06-.43-.14-.63-.21a1.9,1.9,0,0,1-.5-.3,1.22,1.22,0,0,1-.33-.44,1.54,1.54,0,0,1-.12-.65,1.57,1.57,0,0,1,.16-.73,1.53,1.53,0,0,1,.46-.52,2.14,2.14,0,0,1,.7-.32,2.91,2.91,0,0,1,.85-.11,2.54,2.54,0,0,1,.88.14,2.05,2.05,0,0,1,.71.4,2,2,0,0,1,.48.63,1.73,1.73,0,0,1,.17.79h-1.08a1,1,0,0,0-.3-.79,1.27,1.27,0,0,0-.88-.27,1.42,1.42,0,0,0-.77.2.69.69,0,0,0-.3.61.61.61,0,0,0,.1.36,1.08,1.08,0,0,0,.33.24,5,5,0,0,0,.53.2Z"/><path class="cls-5" d="M173.21,50.5l.65.22a2.22,2.22,0,0,1,.55.3,1.33,1.33,0,0,1,.4.45,1.49,1.49,0,0,1,.14.68,1.55,1.55,0,0,1-.17.76,1.69,1.69,0,0,1-.48.55,2.31,2.31,0,0,1-.73.32,3.22,3.22,0,0,1-.9.11,3.12,3.12,0,0,1-.93-.13,2,2,0,0,1-.76-.39,1.93,1.93,0,0,1-.53-.66,2,2,0,0,1-.2-.92h1.1a1.07,1.07,0,0,0,.39.94,1.69,1.69,0,0,0,1,.28,1.59,1.59,0,0,0,.85-.2.72.72,0,0,0,.32-.64.61.61,0,0,0-.13-.39,1.06,1.06,0,0,0-.37-.26,3.74,3.74,0,0,0-.58-.22,7.6,7.6,0,0,1-.78-.25c-.23-.06-.43-.14-.63-.21a1.9,1.9,0,0,1-.5-.3,1.22,1.22,0,0,1-.33-.44,1.54,1.54,0,0,1-.12-.65,1.57,1.57,0,0,1,.16-.73,1.46,1.46,0,0,1,.47-.52,2,2,0,0,1,.69-.32,2.91,2.91,0,0,1,.85-.11,2.54,2.54,0,0,1,.88.14,2.05,2.05,0,0,1,.71.4,2,2,0,0,1,.48.63,1.73,1.73,0,0,1,.17.79h-1.07a1,1,0,0,0-.31-.79,1.27,1.27,0,0,0-.88-.27,1.45,1.45,0,0,0-.77.2.69.69,0,0,0-.3.61.61.61,0,0,0,.1.36,1.08,1.08,0,0,0,.33.24,5,5,0,0,0,.53.2Z"/><path class="cls-5" d="M176.94,51.13a2.29,2.29,0,0,0,.13.7,1.73,1.73,0,0,0,.32.58,1.47,1.47,0,0,0,.54.4,2,2,0,0,0,.82.15,1.59,1.59,0,0,0,1-.28,1.44,1.44,0,0,0,.48-.65h1.13a2.39,2.39,0,0,1-.28.71,2.32,2.32,0,0,1-.54.59,2.75,2.75,0,0,1-.78.41,3.51,3.51,0,0,1-2.29-.09,2.46,2.46,0,0,1-.91-.66,2.62,2.62,0,0,1-.54-1,3.79,3.79,0,0,1-.18-1.18,3.67,3.67,0,0,1,.19-1.22,3,3,0,0,1,.56-1,2.46,2.46,0,0,1,.9-.64,2.94,2.94,0,0,1,1.23-.23,2.62,2.62,0,0,1,1.05.2,2.51,2.51,0,0,1,.86.56,2.38,2.38,0,0,1,.58.84,2.7,2.7,0,0,1,.2,1v.31a3.92,3.92,0,0,1,0,.42Zm1.75-2.5a1.72,1.72,0,0,0-1.23.43,1.58,1.58,0,0,0-.5,1.22h3.37a1.57,1.57,0,0,0-.47-1.21A1.65,1.65,0,0,0,178.69,48.63Z"/><path class="cls-5" d="M190.31,53.75V50.4a2,2,0,0,0-.31-1.23,1.1,1.1,0,0,0-.92-.41,1.21,1.21,0,0,0-1,.5,2.46,2.46,0,0,0-.39,1.53v3h-1.11V50.46a2.11,2.11,0,0,0-.32-1.29,1.05,1.05,0,0,0-.9-.41,1.24,1.24,0,0,0-1,.5,2.39,2.39,0,0,0-.4,1.53v3h-1.12V47.92h1.12v1a1.83,1.83,0,0,1,.61-.84,1.77,1.77,0,0,1,1.11-.35,2,2,0,0,1,1.26.34,1.72,1.72,0,0,1,.61.9,1.73,1.73,0,0,1,.27-.47,1.77,1.77,0,0,1,.42-.4,2.27,2.27,0,0,1,.54-.27,2,2,0,0,1,.65-.1,2.33,2.33,0,0,1,1,.18,1.59,1.59,0,0,1,.64.49,1.73,1.73,0,0,1,.36.73,3.7,3.7,0,0,1,.11.9v3.68Z"/><path class="cls-5" d="M193.7,51.13a2.63,2.63,0,0,0,.12.7,1.73,1.73,0,0,0,.32.58,1.51,1.51,0,0,0,.55.4,2,2,0,0,0,.82.15A1.42,1.42,0,0,0,197,52h1.13a2.39,2.39,0,0,1-.28.71,2.32,2.32,0,0,1-.54.59,2.81,2.81,0,0,1-.79.41,3.48,3.48,0,0,1-2.28-.09,2.38,2.38,0,0,1-.91-.66,2.62,2.62,0,0,1-.54-1,3.79,3.79,0,0,1-.18-1.18,3.67,3.67,0,0,1,.19-1.22,2.79,2.79,0,0,1,.56-1,2.46,2.46,0,0,1,.9-.64,2.92,2.92,0,0,1,1.22-.23,2.67,2.67,0,0,1,1.06.2,2.51,2.51,0,0,1,.86.56,2.24,2.24,0,0,1,.57.84,2.53,2.53,0,0,1,.21,1c0,.09,0,.19,0,.31a3.66,3.66,0,0,1,0,.42Zm1.75-2.5a1.77,1.77,0,0,0-1.24.43,1.66,1.66,0,0,0-.5,1.22h3.38a1.6,1.6,0,0,0-.47-1.21A1.65,1.65,0,0,0,195.45,48.63Z"/><path class="cls-5" d="M199.59,47.92h1.12v1a2,2,0,0,1,.78-.86,2.48,2.48,0,0,1,1.28-.32,2.4,2.4,0,0,1,1,.2,1.61,1.61,0,0,1,.69.57,2.19,2.19,0,0,1,.35.74,4.32,4.32,0,0,1,.1,1v3.44h-1.12V50.66a3.54,3.54,0,0,0-.07-.75,1.78,1.78,0,0,0-.25-.61,1.27,1.27,0,0,0-.46-.4,1.6,1.6,0,0,0-.69-.14,1.46,1.46,0,0,0-1.25.61,2.06,2.06,0,0,0-.31.63,3.08,3.08,0,0,0-.1.75v3h-1.12Z"/><path class="cls-5" d="M209.72,53.75a3.62,3.62,0,0,1-.44,0,5.12,5.12,0,0,1-.56,0,4.4,4.4,0,0,1-.59,0,1.57,1.57,0,0,1-.6-.25,1.66,1.66,0,0,1-.46-.61,2.9,2.9,0,0,1-.18-1.13V48.86h-1.08v-.94h1.08V46H208v2h1.52v.94H208v2.67a3,3,0,0,0,.07.68,1,1,0,0,0,.2.38.57.57,0,0,0,.3.17,1.64,1.64,0,0,0,.4,0h.4a1.08,1.08,0,0,0,.35,0Z"/><path class="cls-5" d="M217.09,45.79l-.3-.08-.35,0-.36,0a.81.81,0,0,0-.33.14.71.71,0,0,0-.24.33,1.63,1.63,0,0,0-.09.61v1.13h1.67v.94h-1.67v4.89h-1.11V48.86h-1.26v-.94h1.26v-1a3,3,0,0,1,.21-1.24A1.55,1.55,0,0,1,215,45a1.37,1.37,0,0,1,.65-.27,3.56,3.56,0,0,1,.61-.05,2.23,2.23,0,0,1,.47,0,1.48,1.48,0,0,1,.32.11Z"/><path class="cls-5" d="M217.93,45.71a.89.89,0,0,1,.25-.64.86.86,0,0,1,.63-.27.9.9,0,0,1,.91.91.86.86,0,0,1-.26.63.92.92,0,0,1-.65.26.89.89,0,0,1-.63-.26A.85.85,0,0,1,217.93,45.71Zm.33,2.21h1.12v5.83h-1.12Z"/><path class="cls-5" d="M220.91,47.92H222v1a2,2,0,0,1,.79-.86,2.76,2.76,0,0,1,2.32-.12,1.61,1.61,0,0,1,.69.57,2,2,0,0,1,.35.74,4.32,4.32,0,0,1,.1,1v3.44h-1.11V50.66a3.52,3.52,0,0,0-.08-.75,1.6,1.6,0,0,0-.25-.61,1.27,1.27,0,0,0-.46-.4,1.57,1.57,0,0,0-.69-.14,1.46,1.46,0,0,0-1.25.61,2,2,0,0,0-.3.63,2.67,2.67,0,0,0-.11.75v3h-1.11Z"/><path class="cls-5" d="M233.63,47.92v5.83h-1.1v-1a2,2,0,0,1-.85.84,2.39,2.39,0,0,1-1.2.31,3.05,3.05,0,0,1-1.22-.24,2.88,2.88,0,0,1-.94-.67,3.18,3.18,0,0,1-.61-1,3,3,0,0,1-.22-1.16,3.13,3.13,0,0,1,.22-1.18,3.18,3.18,0,0,1,.61-1,2.88,2.88,0,0,1,.94-.67,3.05,3.05,0,0,1,1.22-.24,2.39,2.39,0,0,1,1.2.31,2,2,0,0,1,.85.84v-1Zm-3.08,5a1.78,1.78,0,0,0,.81-.17,2,2,0,0,0,.63-.44,1.85,1.85,0,0,0,.39-.65,2.18,2.18,0,0,0,0-1.59,1.85,1.85,0,0,0-.39-.65,2,2,0,0,0-2.25-.45,1.83,1.83,0,0,0-.61.45,1.85,1.85,0,0,0-.39.65,2.33,2.33,0,0,0,0,1.59,1.85,1.85,0,0,0,.39.65,2,2,0,0,0,.61.44A1.78,1.78,0,0,0,230.55,52.89Z"/><path class="cls-5" d="M235.16,47.92h1.11v1a2,2,0,0,1,.79-.86,2.76,2.76,0,0,1,2.32-.12,1.7,1.7,0,0,1,.7.57,2.17,2.17,0,0,1,.34.74,4.32,4.32,0,0,1,.1,1v3.44h-1.11V50.66a3.52,3.52,0,0,0-.08-.75,1.6,1.6,0,0,0-.25-.61,1.33,1.33,0,0,0-.45-.4,1.62,1.62,0,0,0-.7-.14,1.51,1.51,0,0,0-.73.16,1.39,1.39,0,0,0-.51.45,1.86,1.86,0,0,0-.31.63,2.67,2.67,0,0,0-.11.75v3h-1.11Z"/><path class="cls-5" d="M246.21,50a1.47,1.47,0,0,0-.43-.91,1.64,1.64,0,0,0-1.19-.36,1.76,1.76,0,0,0-.78.17,1.59,1.59,0,0,0-.57.45,2.06,2.06,0,0,0-.34.66,2.56,2.56,0,0,0-.12.79,2.88,2.88,0,0,0,.11.78,1.91,1.91,0,0,0,.34.65,1.66,1.66,0,0,0,.59.45,1.8,1.8,0,0,0,.84.17,1.57,1.57,0,0,0,1.08-.31,1.68,1.68,0,0,0,.49-.83h1.11a2.44,2.44,0,0,1-.27.84,2.23,2.23,0,0,1-.54.68,2.88,2.88,0,0,1-.83.46,3.52,3.52,0,0,1-1.12.16,2.92,2.92,0,0,1-1.26-.25A2.78,2.78,0,0,1,241.85,52a3.73,3.73,0,0,1,0-2.29,3.08,3.08,0,0,1,.56-1,2.65,2.65,0,0,1,.91-.69,2.91,2.91,0,0,1,1.25-.25,3.16,3.16,0,0,1,1.21.2,2.48,2.48,0,0,1,.84.51,2.16,2.16,0,0,1,.5.73,3.07,3.07,0,0,1,.21.83Z"/><path class="cls-5" d="M248.38,45.71a.9.9,0,0,1,.26-.64.83.83,0,0,1,.63-.27.92.92,0,0,1,.91.91.83.83,0,0,1-.27.63.9.9,0,0,1-.64.26.89.89,0,0,1-.89-.89Zm.34,2.21h1.11v5.83h-1.11Z"/><path class="cls-5" d="M252.12,51.13a2.63,2.63,0,0,0,.12.7,1.73,1.73,0,0,0,.32.58,1.43,1.43,0,0,0,.55.4,2,2,0,0,0,.82.15,1.45,1.45,0,0,0,1.48-.93h1.13a2.42,2.42,0,0,1-.29.71,2,2,0,0,1-.54.59,2.63,2.63,0,0,1-.78.41,3.13,3.13,0,0,1-1,.15,3.23,3.23,0,0,1-1.29-.24,2.54,2.54,0,0,1-.91-.66,2.62,2.62,0,0,1-.54-1,3.79,3.79,0,0,1-.18-1.18,3.67,3.67,0,0,1,.2-1.22,2.79,2.79,0,0,1,.56-1,2.51,2.51,0,0,1,.89-.64,3,3,0,0,1,1.23-.23A2.67,2.67,0,0,1,255,48a2.62,2.62,0,0,1,1.64,2.43c0,.09,0,.19,0,.31a3.66,3.66,0,0,1,0,.42Zm1.74-2.5a1.76,1.76,0,0,0-1.23.43,1.66,1.66,0,0,0-.5,1.22h3.38a1.6,1.6,0,0,0-.47-1.21A1.66,1.66,0,0,0,253.86,48.63Z"/><path class="cls-5" d="M261.56,49l-.29-.05-.27,0a1.7,1.7,0,0,0-1.45.63,2.72,2.72,0,0,0-.49,1.69v2.55H258V47.92h1.11v1.14a2,2,0,0,1,.78-.89,2.23,2.23,0,0,1,1.16-.34,1.49,1.49,0,0,1,.56.09Z"/></g></g></svg>