<svg viewBox="0 0 300 250" xmlns="http://www.w3.org/2000/svg"><g fill="#fff"><path d="m29.16 167.93h6.52v1.59h-1.45c-.52 3.11-2.71 5.24-6.48 5.24a6.79 6.79 0 0 1 -7-7.08 6.88 6.88 0 0 1 7-7.09c3 0 5.34 1.84 5.67 4.08h-1.78a3.8 3.8 0 0 0 -3.89-2.49 5.5 5.5 0 0 0 .21 11 4.1 4.1 0 0 0 4.39-3.65h-3.19z"/><path d="m45.61 165.66v8.79h-1.68v-1.57a3.31 3.31 0 0 1 -3.1 1.79 3.12 3.12 0 0 1 -2.65-1.15 4.18 4.18 0 0 1 -.66-2.67v-5.19h1.68v4.65c0 1.63.58 2.86 2.21 2.86s2.52-1.41 2.52-3v-4.51z"/><path d="m49.62 170.5a2.55 2.55 0 0 0 2.73 2.75 2.12 2.12 0 0 0 2.22-1.39h1.71a3.76 3.76 0 0 1 -3.93 2.81c-3 0-4.4-2.08-4.4-4.61s1.57-4.63 4.34-4.63a4 4 0 0 1 4.06 4 7.15 7.15 0 0 1 -.07 1.1zm.48-5.79-.79-1.31 4.82-2.66.79 1.32zm-.46 4.51h5.09a2.38 2.38 0 0 0 -2.48-2.49 2.41 2.41 0 0 0 -2.61 2.49z"/><path d="m64.23 167.21a3.13 3.13 0 0 0 -.83-.1c-2 0-2.92 1.38-2.92 3.49v3.85h-1.69v-8.79h1.69v1.73a3.2 3.2 0 0 1 2.92-1.86 2.26 2.26 0 0 1 .83.13z"/><path d="m66.69 161a1.38 1.38 0 0 1 1.37 1.37 1.36 1.36 0 0 1 -1.37 1.34 1.34 1.34 0 0 1 -1.34-1.34 1.36 1.36 0 0 1 1.34-1.37zm-.83 4.7h1.68v8.79h-1.68z"/><path d="m76 167.21a3.13 3.13 0 0 0 -.83-.1c-2 0-2.93 1.38-2.93 3.49v3.85h-1.68v-8.79h1.68v1.73a3.23 3.23 0 0 1 2.93-1.86 2.26 2.26 0 0 1 .83.13z"/><path d="m89.4 172.92a3.52 3.52 0 0 1 -3.08 1.75 4.62 4.62 0 0 1 0-9.24 3.53 3.53 0 0 1 3.08 1.74v-6.27h1.66v13.55h-1.66zm0-2.86a3 3 0 1 0 -3 3.1 3 3 0 0 0 3-3.1z"/><path d="m102 165.66v8.79h-1.69v-1.57a3.29 3.29 0 0 1 -3.1 1.79 3.12 3.12 0 0 1 -2.65-1.15 4.24 4.24 0 0 1 -.66-2.67v-5.19h1.69v4.65c0 1.63.58 2.86 2.2 2.86s2.52-1.41 2.52-3v-4.51z"/><path d="m116.26 172c0 1.76-1.47 2.64-3.44 2.64s-3.65-1-3.65-3.18h1.65c0 1.34.89 1.84 2.07 1.84s1.76-.39 1.76-1.26-1-1.08-2.8-1.68c-1.34-.43-2.38-.84-2.38-2.42s1.45-2.54 3.27-2.54a3.09 3.09 0 0 1 3.39 3h-1.63c0-1-.62-1.6-1.78-1.6-.93 0-1.63.42-1.63 1.21s.91 1 2.54 1.55c1.37.44 2.63.81 2.63 2.44z"/><path d="m126.58 165.66v8.79h-1.69v-1.57a3.29 3.29 0 0 1 -3.09 1.79 3.15 3.15 0 0 1 -2.66-1.15 4.24 4.24 0 0 1 -.65-2.67v-5.19h1.68v4.65c0 1.63.58 2.86 2.21 2.86s2.51-1.41 2.51-3v-4.51z"/><path d="m135 167.21a3.2 3.2 0 0 0 -.84-.1c-1.95 0-2.92 1.38-2.92 3.49v3.85h-1.64v-8.79h1.68v1.73a3.22 3.22 0 0 1 2.92-1.86 2.32 2.32 0 0 1 .84.13z"/><path d="m137.46 170.5a2.55 2.55 0 0 0 2.73 2.75 2.12 2.12 0 0 0 2.22-1.39h1.71a3.76 3.76 0 0 1 -3.93 2.81c-3 0-4.4-2.08-4.4-4.61s1.57-4.63 4.34-4.63a4 4 0 0 1 4.06 4 7.15 7.15 0 0 1 -.07 1.1zm0-1.28h5.1a2.38 2.38 0 0 0 -2.48-2.49 2.42 2.42 0 0 0 -2.61 2.49z"/><path d="m146.63 165.66h1.68v1.55a3.3 3.3 0 0 1 3.1-1.78 3.09 3.09 0 0 1 2.64 1.16 4.22 4.22 0 0 1 .67 2.67v5.19h-1.72v-4.66c0-1.63-.58-2.87-2.23-2.87s-2.5 1.43-2.5 3v4.53h-1.68z"/><path d="m164.44 172.92a3.49 3.49 0 0 1 -3.08 1.75 4.62 4.62 0 0 1 0-9.24 3.5 3.5 0 0 1 3.08 1.74v-6.27h1.67v13.55h-1.67zm0-2.86a3 3 0 1 0 -3 3.1 3 3 0 0 0 3-3.1z"/><path d="m170.11 170.5a2.55 2.55 0 0 0 2.73 2.75 2.13 2.13 0 0 0 2.23-1.39h1.7a3.75 3.75 0 0 1 -3.93 2.81c-3 0-4.4-2.08-4.4-4.61s1.57-4.63 4.34-4.63a4 4 0 0 1 4.07 4 6.27 6.27 0 0 1 -.08 1.1zm0-1.28h5.09a2.37 2.37 0 0 0 -2.48-2.49 2.41 2.41 0 0 0 -2.59 2.49z"/><path d="m184 174.45a9.7 9.7 0 0 1 -1.51.12c-1.09 0-2.77-.19-2.77-3.08v-4.41h-1.63v-1.42h1.63v-3h1.68v3h2.29v1.42h-2.29v4c0 1.71.61 1.92 1.46 1.92a9.25 9.25 0 0 0 1.14 0z"/><path d="m190.57 174.45a9.7 9.7 0 0 1 -1.51.12c-1.08 0-2.77-.19-2.77-3.08v-4.41h-1.62v-1.42h1.62v-3h1.71v3h2.28v1.42h-2.28v4c0 1.71.6 1.92 1.45 1.92a9.25 9.25 0 0 0 1.14-.08z"/><path d="m193.16 170.5a2.56 2.56 0 0 0 2.73 2.75 2.12 2.12 0 0 0 2.23-1.39h1.71a3.77 3.77 0 0 1 -3.94 2.81c-3 0-4.39-2.08-4.39-4.61s1.57-4.63 4.34-4.63a4 4 0 0 1 4.06 4 7.15 7.15 0 0 1 -.07 1.1zm0-1.28h5.1a2.38 2.38 0 0 0 -2.48-2.49 2.42 2.42 0 0 0 -2.6 2.49z"/><path d="m213.72 174.45v-5c0-1.63-.65-2.48-1.85-2.48s-2.15 1-2.15 3.06v4.47h-1.72v-5c0-1.79-.66-2.58-1.84-2.58s-2.17 1-2.17 3.06v4.47h-1.68v-8.79h1.69v1.57a2.72 2.72 0 0 1 2.6-1.8 2.62 2.62 0 0 1 2.83 1.88 3 3 0 0 1 2.82-1.88c2.35 0 3.14 1.53 3.14 3.47v5.55z"/><path d="m219.28 170.5a2.55 2.55 0 0 0 2.73 2.75 2.12 2.12 0 0 0 2.22-1.39h1.71a3.76 3.76 0 0 1 -3.93 2.81c-3 0-4.4-2.08-4.4-4.61s1.57-4.63 4.34-4.63a4 4 0 0 1 4.06 4 7.15 7.15 0 0 1 -.07 1.1zm0-1.28h5.1a2.38 2.38 0 0 0 -2.48-2.49 2.42 2.42 0 0 0 -2.61 2.49z"/><path d="m228.45 165.66h1.68v1.55a3.3 3.3 0 0 1 3.1-1.78 3.09 3.09 0 0 1 2.64 1.16 4.22 4.22 0 0 1 .67 2.67v5.19h-1.68v-4.66c0-1.63-.58-2.87-2.23-2.87s-2.5 1.43-2.5 3v4.53h-1.68z"/><path d="m244.17 174.45a9.7 9.7 0 0 1 -1.51.12c-1.09 0-2.77-.19-2.77-3.08v-4.41h-1.63v-1.42h1.63v-3h1.68v3h2.29v1.42h-2.29v4c0 1.71.6 1.92 1.46 1.92a9.25 9.25 0 0 0 1.14-.08z"/><path d="m247 171.84a1.73 1.73 0 0 1 1.62 1.95c0 2.13-1.1 2.89-2.9 2.91v-.83a1.56 1.56 0 0 0 1.39-.6 1.52 1.52 0 0 0 .29-.86.7.7 0 0 1 -.44.16 1.31 1.31 0 0 1 -1.34-1.36 1.36 1.36 0 0 1 1.38-1.37z"/><path d="m24.28 197.82a4.39 4.39 0 0 1 -3.45-4.53 4.34 4.34 0 0 1 4.38-4.63c2.84 0 4 1.72 4.16 3.43h-1.68c-.14-1.09-.8-1.92-2.44-1.92-1.82 0-2.73 1.47-2.73 3.12s.87 3.09 2.82 3.09a2.13 2.13 0 0 0 2.37-1.72h1.68a3.74 3.74 0 0 1 -3.87 3.23h-.12v1.11a1.21 1.21 0 0 1 .93-.35 1.47 1.47 0 0 1 1.47 1.57 1.76 1.76 0 0 1 -1.91 1.74 1.84 1.84 0 0 1 -1.89-1.57h1a.85.85 0 0 0 .86.62.82.82 0 0 0 .89-.83.86.86 0 0 0 -1.61-.39h-.89z"/><path d="m40.29 188.89v8.79h-1.67v-1.53a3.48 3.48 0 0 1 -3.08 1.74 4.62 4.62 0 0 1 0-9.23 3.5 3.5 0 0 1 3.08 1.74v-1.51zm-1.67 4.4a3 3 0 1 0 -3 3.09 3 3 0 0 0 3-3.09z"/><path d="m53.2 185.68a3 3 0 0 0 -1-.16c-.72 0-1.53.08-1.53 1.67v1.7h2.53v1.41h-2.52v7.38h-1.68v-7.38h-1.9v-1.41h1.9v-1.53c0-3.19 2-3.35 3-3.35a2.7 2.7 0 0 1 1.2.23z"/><path d="m63.21 188.89v8.79h-1.67v-1.53a3.48 3.48 0 0 1 -3.08 1.74 4.62 4.62 0 0 1 0-9.23 3.5 3.5 0 0 1 3.08 1.74v-1.51zm-1.67 4.4a3 3 0 1 0 -3 3.09 3 3 0 0 0 3-3.09z"/><path d="m67.06 184.19a1.36 1.36 0 1 1 0 2.71 1.36 1.36 0 0 1 0-2.71zm-.84 4.7h1.69v8.79h-1.69z"/><path d="m75.71 197.68a9.7 9.7 0 0 1 -1.51.12c-1.09 0-2.77-.2-2.77-3.08v-4.42h-1.63v-1.41h1.63v-3h1.68v3h2.29v1.41h-2.29v4c0 1.7.61 1.92 1.46 1.92a9.25 9.25 0 0 0 1.14-.08z"/><path d="m84.09 197.68h-1.68v-13.55h1.68v6.27a3.47 3.47 0 0 1 3.06-1.74 4.62 4.62 0 0 1 0 9.23 3.45 3.45 0 0 1 -3.06-1.74zm5.91-4.39a3 3 0 1 0 -2.93 3.09 3 3 0 0 0 2.93-3.09z"/><path d="m95 193.73a2.55 2.55 0 0 0 2.73 2.75 2.12 2.12 0 0 0 2.22-1.39h1.71a3.75 3.75 0 0 1 -3.93 2.8c-3 0-4.4-2.07-4.4-4.6s1.57-4.63 4.34-4.63a4 4 0 0 1 4.07 4 6.27 6.27 0 0 1 -.08 1.1zm0-1.28h5.09a2.37 2.37 0 0 0 -2.47-2.45 2.41 2.41 0 0 0 -2.62 2.45z"/><path d="m112.7 188.89v8.79h-1.7v-1.53a3.5 3.5 0 0 1 -3.08 1.74 4.62 4.62 0 0 1 0-9.23 3.52 3.52 0 0 1 3.08 1.74v-1.51zm-1.66 4.4a3 3 0 1 0 -5.93 0 3 3 0 1 0 5.93 0z"/><path d="m123.64 188.89v8.79h-1.64v-1.57a3.28 3.28 0 0 1 -3.1 1.78 3.11 3.11 0 0 1 -2.65-1.14 4.26 4.26 0 0 1 -.66-2.67v-5.19h1.69v4.65c0 1.62.58 2.86 2.21 2.86s2.51-1.41 2.51-3v-4.51z"/><path d="m132.83 192.09c-.13-1.09-.79-1.92-2.44-1.92-1.82 0-2.73 1.47-2.73 3.12s.87 3.09 2.83 3.09a2.12 2.12 0 0 0 2.36-1.72h1.68c-.27 1.82-1.6 3.23-4.16 3.23a4.62 4.62 0 0 1 0-9.23c2.85 0 4 1.72 4.17 3.43z"/><path d="m136.08 193.29a4.63 4.63 0 1 1 4.61 4.6 4.5 4.5 0 0 1 -4.61-4.6zm7.59 0a3 3 0 1 0 -3 3.09 3 3 0 0 0 3-3.09z"/><path d="m155.56 188.89v8.79h-1.69v-1.57a3.28 3.28 0 0 1 -3.1 1.78 3.11 3.11 0 0 1 -2.65-1.14 4.26 4.26 0 0 1 -.66-2.67v-5.19h1.69v4.65c0 1.62.58 2.86 2.2 2.86s2.52-1.41 2.52-3v-4.51z"/><path d="m160.26 190.4a3.47 3.47 0 0 1 3.06-1.74 4.62 4.62 0 0 1 0 9.23 3.45 3.45 0 0 1 -3.06-1.74v6.3h-1.69v-13.56h1.69zm0 2.89a3 3 0 1 0 3-3.12 2.94 2.94 0 0 0 -3 3.12z"/><path d="m181.94 196.15a3.48 3.48 0 0 1 -3.08 1.74 4.62 4.62 0 0 1 0-9.23 3.5 3.5 0 0 1 3.08 1.74v-6.27h1.66v13.55h-1.66zm0-2.86a3 3 0 1 0 -3 3.09 3 3 0 0 0 3-3.09z"/><path d="m187.61 193.73a2.55 2.55 0 0 0 2.73 2.75 2.13 2.13 0 0 0 2.23-1.39h1.7a3.74 3.74 0 0 1 -3.93 2.8c-3 0-4.4-2.07-4.4-4.6s1.57-4.63 4.34-4.63a4 4 0 0 1 4.07 4 6.27 6.27 0 0 1 -.08 1.1zm0-1.28h5.09a2.36 2.36 0 0 0 -2.48-2.49 2.41 2.41 0 0 0 -2.59 2.49z"/><path d="m203.37 197.68h-1.69v-13.55h1.69v6.27a3.47 3.47 0 0 1 3-1.74 4.62 4.62 0 0 1 0 9.23 3.45 3.45 0 0 1 -3-1.74zm5.9-4.39a3 3 0 1 0 -2.92 3.09 3 3 0 0 0 2.92-3.09z"/><path d="m214.11 184.19a1.36 1.36 0 1 1 0 2.71 1.36 1.36 0 0 1 0-2.71zm-.83 4.7h1.72v8.79h-1.68z"/><path d="m219 193.73a2.55 2.55 0 0 0 2.73 2.75 2.12 2.12 0 0 0 2.22-1.39h1.71a3.75 3.75 0 0 1 -3.93 2.8c-3 0-4.4-2.07-4.4-4.6s1.57-4.63 4.34-4.63a4 4 0 0 1 4.06 4 7.15 7.15 0 0 1 -.07 1.1zm0-1.28h5.09a2.37 2.37 0 0 0 -2.49-2.45 2.41 2.41 0 0 0 -2.6 2.45z"/><path d="m228.14 188.89h1.69v1.55a3.27 3.27 0 0 1 3.09-1.78 3.06 3.06 0 0 1 2.64 1.16 4.22 4.22 0 0 1 .67 2.67v5.19h-1.68v-4.68c0-1.62-.58-2.86-2.23-2.86s-2.49 1.43-2.49 3v4.53h-1.69z"/></g></svg>